<svg xmlns="http://www.w3.org/2000/svg" width="57" height="53" viewBox="0 0 57 53">
    <defs>
        <style>
            .cls-2{fill:#fff}
        </style>
    </defs>
    <g id="ic_common_logosimple_white" transform="translate(1.745 0.271)">
        <path id="사각형_363" fill="none" d="M0 0H57V53H0z" transform="translate(-1.745 -0.271)"/>
        <g id="그룹_10" transform="translate(0.988 -0.157)">
            <path id="패스_16" d="M71.957 35.115a4.263 4.263 0 0 0-4.574-4.4 4.173 4.173 0 0 0-4.472 4.4 4.234 4.234 0 0 0 4.472 4.472 4.536 4.536 0 0 0 4.574-4.472z" class="cls-2" transform="translate(-38.03 -20.896)"/>
            <path id="패스_17" d="M60.749 12H21.744a6.259 6.259 0 0 0-6.259 6.26v39a6.259 6.259 0 0 0 6.259 6.259h39.005a6.259 6.259 0 0 0 6.259-6.259v-39A6.259 6.259 0 0 0 60.749 12zM37.2 51.129a1.912 1.912 0 0 1-1.945 1.964h-1.384a1.912 1.912 0 0 1-1.945-1.964V39.765h-11.6a1.939 1.939 0 0 1-1.978-1.893v-1.267a1.917 1.917 0 0 1 1.978-1.894h12.836c3.558 0 4.038 2.1 4.038 4.144zm-2.208-24.874c0-5.928 3.958-9.911 9.847-9.911a9.746 9.746 0 0 1 10.018 9.911 9.7 9.7 0 0 1-10.018 9.806 9.611 9.611 0 0 1-9.847-9.806zM63.4 56.2l-.509 1.16a1.856 1.856 0 0 1-2.57.905 36.152 36.152 0 0 1-5.984-2.94c-1.365-.794-2.475-1.471-3.466-2.119a74.572 74.572 0 0 1-8.471 5.677 2.056 2.056 0 0 1-1.042.3 1.9 1.9 0 0 1-1.641-.986l-.7-1.2a1.931 1.931 0 0 1 .771-2.511C45.823 50.9 49.3 48.25 52.507 44.7H42.291a1.836 1.836 0 0 1-1.911-1.929v-1.227a1.84 1.84 0 0 1 1.911-1.894H55.7c.863 0 3.487 0 4.324 1.9.536 1.214.095 2.613-1.311 4.155-1.119 1.265-2.314 2.52-3.537 3.718l-.277.27.009.006a37.924 37.924 0 0 0 7.432 3.9 1.854 1.854 0 0 1 1.222 1.11A1.772 1.772 0 0 1 63.4 56.2z" class="cls-2" transform="translate(-15.485 -12.001)"/>
        </g>
    </g>
</svg>
